# xmcd CD database file
# Copyright (C) 1993-1996 Ti Kan
#
# Track frame offsets:
#  150
#  35675
#  49080
#  66253
#  85735
#  98746
#  117790
#  140167
#  157752
#  178998
#
# Disc length: 2434 seconds
#
# Revision: 2
# Processed by: cddbd v1.5.2PL0 Copyright (c) Steve Scherf et al.
# Submitted via: Advanced CD Ripper Pro 2.0
#
DISCID=8509800a
DTITLE=Mason Proffit - Last Night I Had The Strangest Dream
DYEAR=1971
DGENRE=country
TTITLE0=unbekannt - In The Country/Sparrow
TTITLE1=unbekannt - 24 Hour Sweetheart
TTITLE2=unbekannt - Last Night I Had The Strangest Dream
TTITLE3=unbekannt - Hope
TTITLE4=unbekannt - Freedom
TTITLE5=unbekannt - 500 Men
TTITLE6=unbekannt - Jewel
TTITLE7=unbekannt - Eugene Pratt
TTITLE8=unbekannt - Mother
TTITLE9=unbekannt - Country
EXTD=
EXTT0=
EXTT1=
EXTT2=
EXTT3=
EXTT4=
EXTT5=
EXTT6=
EXTT7=
EXTT8=
EXTT9=
PLAYORDER=
